STARTFONT 2.1
COMMENT $XConsortium: luRS14.bdf,v 1.7 94/04/02 16:00:09 gildea Exp $
COMMENT  (c) Copyright Bigelow & Holmes 1986, 1985. Lucida is a registered
COMMENT  trademark of Bigelow & Holmes. See LEGAL NOTICE file for terms 
COMMENT  of the license. 
COMMENT GRID 0014 0014 0200 0200
FONT -RFX-Serene-Medium-R-Normal-Sans-14-140-75-75-P-81-iso10646-0400
SIZE 14 72 72
FONTBOUNDINGBOX 15 15 -1 -2
STARTPROPERTIES 24
FONTNAME_REGISTRY ""
FOUNDRY "RFX"
FAMILY_NAME "Serene"
WEIGHT_NAME "Medium"
SLANT "R"
SETWIDTH_NAME "Normal"
ADD_STYLE_NAME "Sans"
PIXEL_SIZE 14
POINT_SIZE 140
RESOLUTION_X 75
RESOLUTION_Y 75
SPACING "P"
AVERAGE_WIDTH 81
CHARSET_REGISTRY "iso10646"
CHARSET_ENCODING "0400"
FONT_ASCENT 13
FONT_DESCENT 2
DEFAULT_CHAR 32
COPYRIGHT "Copyright Bigelow & Holmes 1986, 1985."
FACE_NAME "Lucida Sans"
COPYRIGHT2 "Cyrillic glyphs copyright 2000 Dmitry Yu. Bolkhovityanov, bolkhov@inp.nsk.su"
SOURCEDATE "Sat Jul 22 14:20:03 2000"
PKGVERSION "1.1"
ASSEMBLER "cvtbdf.pl (Linux)"
ENDPROPERTIES
CHARS 305
STARTCHAR space
ENCODING 32
SWIDTH 316 0
DWIDTH 4 0
BBX 0 0 0 0
BITMAP
ENDCHAR
STARTCHAR exclam
ENCODING 33
SWIDTH 205 0
DWIDTH 3 0
BBX 1 10 1 0
BITMAP
80
80
80
80
80
80
80
00
80
80
ENDCHAR
STARTCHAR quotedbl
ENCODING 34
SWIDTH 373 0
DWIDTH 6 0
BBX 4 4 1 7
BITMAP
90
90
90
90
ENDCHAR
STARTCHAR numbersign
ENCODING 35
SWIDTH 633 0
DWIDTH 9 0
BBX 8 10 1 0
BITMAP
24
24
24
FF
24
24
FF
24
24
24
ENDCHAR
STARTCHAR dollar
ENCODING 36
SWIDTH 633 0
DWIDTH 9 0
BBX 7 12 1 -1
BITMAP
10
7C
92
90
90
70
1C
12
12
92
7C
10
ENDCHAR
STARTCHAR percent
ENCODING 37
SWIDTH 669 0
DWIDTH 10 0
BBX 8 10 1 0
BITMAP
60
91
92
64
08
10
26
49
89
06
ENDCHAR
STARTCHAR ampersand
ENCODING 38
SWIDTH 697 0
DWIDTH 10 0
BBX 9 10 1 0
BITMAP
3C00
4200
4200
4400
3980
4900
8500
8200
8700
7880
ENDCHAR
STARTCHAR quotesingle
ENCODING 39
SWIDTH 229 0
DWIDTH 3 0
BBX 1 4 1 7
BITMAP
80
80
80
80
ENDCHAR
STARTCHAR parenleft
ENCODING 40
SWIDTH 325 0
DWIDTH 5 0
BBX 4 12 1 -1
BITMAP
30
40
40
80
80
80
80
80
80
40
40
30
ENDCHAR
STARTCHAR parenright
ENCODING 41
SWIDTH 325 0
DWIDTH 5 0
BBX 4 12 0 -1
BITMAP
C0
20
20
10
10
10
10
10
10
20
20
C0
ENDCHAR
STARTCHAR asterisk
ENCODING 42
SWIDTH 482 0
DWIDTH 7 0
BBX 5 5 1 5
BITMAP
20
A8
50
A8
20
ENDCHAR
STARTCHAR plus
ENCODING 43
SWIDTH 633 0
DWIDTH 9 0
BBX 7 7 1 1
BITMAP
10
10
10
FE
10
10
10
ENDCHAR
STARTCHAR comma
ENCODING 44
SWIDTH 316 0
DWIDTH 4 0
BBX 3 4 0 -2
BITMAP
20
20
40
80
ENDCHAR
STARTCHAR minus
ENCODING 45
SWIDTH 633 0
DWIDTH 9 0
BBX 7 1 1 4
BITMAP
FE
ENDCHAR
STARTCHAR period
ENCODING 46
SWIDTH 316 0
DWIDTH 3 0
BBX 1 2 1 0
BITMAP
80
80
ENDCHAR
STARTCHAR slash
ENCODING 47
SWIDTH 494 0
DWIDTH 7 0
BBX 7 12 0 -1
BITMAP
02
04
04
08
08
10
10
20
20
40
40
80
ENDCHAR
STARTCHAR zero
ENCODING 48
SWIDTH 633 0
DWIDTH 9 0
BBX 7 10 1 0
BITMAP
38
44
82
82
82
82
82
82
44
38
ENDCHAR
STARTCHAR one
ENCODING 49
SWIDTH 633 0
DWIDTH 9 0
BBX 3 10 2 0
BITMAP
20
E0
20
20
20
20
20
20
20
20
ENDCHAR
STARTCHAR two
ENCODING 50
SWIDTH 633 0
DWIDTH 9 0
BBX 7 10 1 0
BITMAP
7C
82
02
02
04
08
10
20
40
FE
ENDCHAR
STARTCHAR three
ENCODING 51
SWIDTH 633 0
DWIDTH 9 0
BBX 7 10 1 0
BITMAP
78
84
02
04
38
04
02
02
84
78
ENDCHAR
STARTCHAR four
ENCODING 52
SWIDTH 633 0
DWIDTH 9 0
BBX 7 10 1 0
BITMAP
04
0C
14
24
44
84
FE
04
04
04
ENDCHAR
STARTCHAR five
ENCODING 53
SWIDTH 633 0
DWIDTH 9 0
BBX 7 10 1 0
BITMAP
FE
80
80
80
F8
04
02
02
84
78
ENDCHAR
STARTCHAR six
ENCODING 54
SWIDTH 633 0
DWIDTH 9 0
BBX 7 10 1 0
BITMAP
3C
42
80
B8
C4
82
82
82
44
38
ENDCHAR
STARTCHAR seven
ENCODING 55
SWIDTH 633 0
DWIDTH 9 0
BBX 7 10 1 0
BITMAP
FE
02
02
04
08
10
10
20
20
20
ENDCHAR
STARTCHAR eight
ENCODING 56
SWIDTH 633 0
DWIDTH 9 0
BBX 7 10 1 0
BITMAP
38
44
82
44
38
44
82
82
44
38
ENDCHAR
STARTCHAR nine
ENCODING 57
SWIDTH 633 0
DWIDTH 9 0
BBX 7 10 1 0
BITMAP
38
44
82
82
82
46
3A
02
84
78
ENDCHAR
STARTCHAR colon
ENCODING 58
SWIDTH 316 0
DWIDTH 3 0
BBX 1 7 1 0
BITMAP
80
80
00
00
00
80
80
ENDCHAR
STARTCHAR semicolon
ENCODING 59
SWIDTH 316 0
DWIDTH 4 0
BBX 3 9 0 -2
BITMAP
20
20
00
00
00
20
20
40
80
ENDCHAR
STARTCHAR less
ENCODING 60
SWIDTH 633 0
DWIDTH 9 0
BBX 6 7 1 1
BITMAP
04
18
20
C0
20
18
04
ENDCHAR
STARTCHAR equal
ENCODING 61
SWIDTH 633 0
DWIDTH 9 0
BBX 7 3 1 3
BITMAP
FE
00
FE
ENDCHAR
STARTCHAR greater
ENCODING 62
SWIDTH 633 0
DWIDTH 9 0
BBX 6 7 2 1
BITMAP
80
60
10
0C
10
60
80
ENDCHAR
STARTCHAR question
ENCODING 63
SWIDTH 422 0
DWIDTH 6 0
BBX 5 10 1 0
BITMAP
70
88
08
08
10
20
20
00
20
20
ENDCHAR
STARTCHAR at
ENCODING 64
SWIDTH 858 0
DWIDTH 12 0
BBX 10 10 1 0
BITMAP
1E00
6100
4080
8F80
9080
9080
9180
4EC0
6000
1F00
ENDCHAR
STARTCHAR A
ENCODING 65
SWIDTH 690 0
DWIDTH 10 0
BBX 8 10 1 0
BITMAP
18
18
24
24
42
42
7E
81
81
81
ENDCHAR
STARTCHAR B
ENCODING 66
SWIDTH 575 0
DWIDTH 8 0
BBX 5 10 2 0
BITMAP
F0
88
88
90
E0
90
88
88
98
F0
ENDCHAR
STARTCHAR C
ENCODING 67
SWIDTH 692 0
DWIDTH 10 0
BBX 8 10 1 0
BITMAP
3E
43
C0
80
80
80
80
C0
41
3E
ENDCHAR
STARTCHAR D
ENCODING 68
SWIDTH 749 0
DWIDTH 11 0
BBX 8 10 2 0
BITMAP
FC
82
83
81
81
81
81
83
82
FC
ENDCHAR
STARTCHAR E
ENCODING 69
SWIDTH 542 0
DWIDTH 8 0
BBX 5 10 2 0
BITMAP
F8
80
80
80
F8
80
80
80
80
F8
ENDCHAR
STARTCHAR F
ENCODING 70
SWIDTH 536 0
DWIDTH 8 0
BBX 5 10 2 0
BITMAP
F8
80
80
80
F8
80
80
80
80
80
ENDCHAR
STARTCHAR G
ENCODING 71
SWIDTH 723 0
DWIDTH 10 0
BBX 8 10 1 0
BITMAP
3E
43
C0
80
80
81
81
C1
41
3F
ENDCHAR
STARTCHAR H
ENCODING 72
SWIDTH 735 0
DWIDTH 11 0
BBX 7 10 2 0
BITMAP
82
82
82
82
FE
82
82
82
82
82
ENDCHAR
STARTCHAR I
ENCODING 73
SWIDTH 288 0
DWIDTH 5 0
BBX 1 10 2 0
BITMAP
80
80
80
80
80
80
80
80
80
80
ENDCHAR
STARTCHAR J
ENCODING 74
SWIDTH 311 0
DWIDTH 5 0
BBX 3 12 0 -2
BITMAP
20
20
20
20
20
20
20
20
20
20
20
C0
ENDCHAR
STARTCHAR K
ENCODING 75
SWIDTH 653 0
DWIDTH 9 0
BBX 7 10 2 0
BITMAP
82
84
88
90
E0
90
88
88
84
86
ENDCHAR
STARTCHAR L
ENCODING 76
SWIDTH 533 0
DWIDTH 8 0
BBX 5 10 2 0
BITMAP
80
80
80
80
80
80
80
80
80
F8
ENDCHAR
STARTCHAR M
ENCODING 77
SWIDTH 861 0
DWIDTH 12 0
BBX 10 10 1 0
BITMAP
C0C0
C0C0
A140
A140
A140
9240
9240
8C40
8C40
8040
ENDCHAR
STARTCHAR N
ENCODING 78
SWIDTH 741 0
DWIDTH 11 0
BBX 7 10 2 0
BITMAP
C2
C2
A2
A2
92
92
8A
8A
86
86
ENDCHAR
STARTCHAR O
ENCODING 79
SWIDTH 777 0
DWIDTH 11 0
BBX 9 10 1 0
BITMAP
3E00
4100
C180
8080
8080
8080
8080
C180
4100
3E00
ENDCHAR
STARTCHAR P
ENCODING 80
SWIDTH 553 0
DWIDTH 9 0
BBX 6 10 2 0
BITMAP
F8
84
84
84
88
F0
80
80
80
80
ENDCHAR
STARTCHAR Q
ENCODING 81
SWIDTH 777 0
DWIDTH 11 0
BBX 10 12 1 -2
BITMAP
3E00
4100
C180
8080
8080
8080
8080
C180
4100
3E00
0100
00C0
ENDCHAR
STARTCHAR R
ENCODING 82
SWIDTH 633 0
DWIDTH 9 0
BBX 7 10 2 0
BITMAP
F8
84
84
84
88
F0
88
88
84
86
ENDCHAR
STARTCHAR S
ENCODING 83
SWIDTH 539 0
DWIDTH 8 0
BBX 6 10 1 0
BITMAP
78
84
80
80
60
18
04
04
84
78
ENDCHAR
STARTCHAR T
ENCODING 84
SWIDTH 633 0
DWIDTH 9 0
BBX 7 10 1 0
BITMAP
FE
10
10
10
10
10
10
10
10
10
ENDCHAR
STARTCHAR U
ENCODING 85
SWIDTH 693 0
DWIDTH 9 0
BBX 7 10 1 0
BITMAP
82
82
82
82
82
82
82
82
44
38
ENDCHAR
STARTCHAR V
ENCODING 86
SWIDTH 654 0
DWIDTH 10 0
BBX 8 10 1 0
BITMAP
81
81
81
42
42
42
24
24
18
18
ENDCHAR
STARTCHAR W
ENCODING 87
SWIDTH 855 0
DWIDTH 13 0
BBX 11 10 1 0
BITMAP
8020
8020
8420
8420
4440
4A40
4A40
4A40
3180
3180
ENDCHAR
STARTCHAR X
ENCODING 88
SWIDTH 626 0
DWIDTH 9 0
BBX 7 10 1 0
BITMAP
82
82
44
28
10
10
28
44
82
82
ENDCHAR
STARTCHAR Y
ENCODING 89
SWIDTH 623 0
DWIDTH 9 0
BBX 7 10 1 0
BITMAP
82
82
44
44
28
10
10
10
10
10
ENDCHAR
STARTCHAR Z
ENCODING 90
SWIDTH 605 0
DWIDTH 9 0
BBX 7 10 1 0
BITMAP
FE
02
04
08
10
20
40
80
80
FE
ENDCHAR
STARTCHAR bracketleft
ENCODING 91
SWIDTH 325 0
DWIDTH 5 0
BBX 3 12 1 -1
BITMAP
E0
80
80
80
80
80
80
80
80
80
80
E0
ENDCHAR
STARTCHAR backslash
ENCODING 92
SWIDTH 494 0
DWIDTH 7 0
BBX 7 12 0 -1
BITMAP
80
40
40
20
20
10
10
08
08
04
04
02
ENDCHAR
STARTCHAR bracketright
ENCODING 93
SWIDTH 325 0
DWIDTH 5 0
BBX 3 12 1 -1
BITMAP
E0
20
20
20
20
20
20
20
20
20
20
E0
ENDCHAR
STARTCHAR asciicircum
ENCODING 94
SWIDTH 633 0
DWIDTH 9 0
BBX 6 6 2 4
BITMAP
30
30
48
48
84
84
ENDCHAR
STARTCHAR underscore
ENCODING 95
SWIDTH 500 0
DWIDTH 9 0
BBX 7 1 1 -1
BITMAP
FE
ENDCHAR
STARTCHAR grave
ENCODING 96
SWIDTH 614 0
DWIDTH 9 0
BBX 4 2 2 9
BITMAP
C0
30
ENDCHAR
STARTCHAR a
ENCODING 97
SWIDTH 552 0
DWIDTH 9 0
BBX 7 8 1 0
BITMAP
78
04
04
7C
84
84
8C
72
ENDCHAR
STARTCHAR b
ENCODING 98
SWIDTH 630 0
DWIDTH 8 0
BBX 6 11 1 0
BITMAP
80
80
80
B0
C8
84
84
84
84
88
F0
ENDCHAR
STARTCHAR c
ENCODING 99
SWIDTH 518 0
DWIDTH 8 0
BBX 6 8 1 0
BITMAP
38
44
80
80
80
80
44
38
ENDCHAR
STARTCHAR d
ENCODING 100
SWIDTH 630 0
DWIDTH 8 0
BBX 6 11 1 0
BITMAP
04
04
04
3C
44
84
84
84
84
4C
34
ENDCHAR
STARTCHAR e
ENCODING 101
SWIDTH 557 0
DWIDTH 8 0
BBX 6 8 1 0
BITMAP
38
44
84
FC
80
80
44
38
ENDCHAR
STARTCHAR f
ENCODING 102
SWIDTH 367 0
DWIDTH 6 0
BBX 6 11 0 0
BITMAP
1C
20
20
FC
20
20
20
20
20
20
20
ENDCHAR
STARTCHAR g
ENCODING 103
SWIDTH 623 0
DWIDTH 8 0
BBX 6 10 1 -2
BITMAP
3C
44
84
84
84
4C
34
04
88
70
ENDCHAR
STARTCHAR h
ENCODING 104
SWIDTH 620 0
DWIDTH 8 0
BBX 6 11 1 0
BITMAP
80
80
80
B8
CC
84
84
84
84
84
84
ENDCHAR
STARTCHAR i
ENCODING 105
SWIDTH 289 0
DWIDTH 5 0
BBX 1 11 2 0
BITMAP
80
80
00
80
80
80
80
80
80
80
80
ENDCHAR
STARTCHAR j
ENCODING 106
SWIDTH 304 0
DWIDTH 5 0
BBX 3 13 0 -2
BITMAP
20
20
00
20
20
20
20
20
20
20
20
20
C0
ENDCHAR
STARTCHAR k
ENCODING 107
SWIDTH 585 0
DWIDTH 9 0
BBX 6 11 2 0
BITMAP
80
80
80
88
90
A0
E0
90
90
88
8C
ENDCHAR
STARTCHAR l
ENCODING 108
SWIDTH 289 0
DWIDTH 5 0
BBX 1 11 2 0
BITMAP
80
80
80
80
80
80
80
80
80
80
80
ENDCHAR
STARTCHAR m
ENCODING 109
SWIDTH 934 0
DWIDTH 13 0
BBX 11 8 1 0
BITMAP
B9C0
CE60
8420
8420
8420
8420
8420
8420
ENDCHAR
STARTCHAR n
ENCODING 110
SWIDTH 620 0
DWIDTH 8 0
BBX 6 8 1 0
BITMAP
B8
CC
84
84
84
84
84
84
ENDCHAR
STARTCHAR o
ENCODING 111
SWIDTH 614 0
DWIDTH 9 0
BBX 7 8 1 0
BITMAP
38
44
82
82
82
82
44
38
ENDCHAR
STARTCHAR p
ENCODING 112
SWIDTH 630 0
DWIDTH 8 0
BBX 6 10 1 -2
BITMAP
B0
C8
84
84
84
84
88
F0
80
80
ENDCHAR
STARTCHAR q
ENCODING 113
SWIDTH 630 0
DWIDTH 8 0
BBX 6 10 1 -2
BITMAP
3C
44
84
84
84
84
4C
34
04
04
ENDCHAR
STARTCHAR r
ENCODING 114
SWIDTH 409 0
DWIDTH 7 0
BBX 4 8 2 0
BITMAP
90
A0
C0
80
80
80
80
80
ENDCHAR
STARTCHAR s
ENCODING 115
SWIDTH 510 0
DWIDTH 6 0
BBX 4 8 1 0
BITMAP
70
80
80
40
20
10
10
E0
ENDCHAR
STARTCHAR t
ENCODING 116
SWIDTH 374 0
DWIDTH 7 0
BBX 6 10 1 0
BITMAP
20
20
FC
20
20
20
20
20
20
18
ENDCHAR
STARTCHAR u
ENCODING 117
SWIDTH 620 0
DWIDTH 8 0
BBX 6 8 1 0
BITMAP
84
84
84
84
84
84
CC
74
ENDCHAR
STARTCHAR v
ENCODING 118
SWIDTH 572 0
DWIDTH 8 0
BBX 6 8 1 0
BITMAP
84
84
84
84
48
48
30
30
ENDCHAR
STARTCHAR w
ENCODING 119
SWIDTH 840 0
DWIDTH 11 0
BBX 9 8 1 0
BITMAP
8080
8880
8880
4900
5500
5500
2200
2200
ENDCHAR
STARTCHAR x
ENCODING 120
SWIDTH 613 0
DWIDTH 8 0
BBX 6 8 1 0
BITMAP
84
84
48
30
30
48
84
84
ENDCHAR
STARTCHAR y
ENCODING 121
SWIDTH 568 0
DWIDTH 8 0
BBX 6 10 1 -2
BITMAP
84
84
84
84
48
48
30
30
40
C0
ENDCHAR
STARTCHAR z
ENCODING 122
SWIDTH 573 0
DWIDTH 8 0
BBX 6 8 1 0
BITMAP
FC
04
08
10
20
40
80
FC
ENDCHAR
STARTCHAR braceleft
ENCODING 123
SWIDTH 325 0
DWIDTH 5 0
BBX 4 12 1 -1
BITMAP
70
80
80
40
20
C0
20
40
80
80
80
70
ENDCHAR
STARTCHAR bar
ENCODING 124
SWIDTH 265 0
DWIDTH 4 0
BBX 1 12 2 -1
BITMAP
80
80
80
80
80
80
80
80
80
80
80
80
ENDCHAR
STARTCHAR braceright
ENCODING 125
SWIDTH 325 0
DWIDTH 5 0
BBX 4 12 0 -1
BITMAP
E0
10
10
20
40
30
40
20
10
10
10
E0
ENDCHAR
STARTCHAR asciitilde
ENCODING 126
SWIDTH 633 0
DWIDTH 9 0
BBX 7 3 1 3
BITMAP
62
92
8C
ENDCHAR
STARTCHAR space
ENCODING 160
SWIDTH 316 0
DWIDTH 4 0
BBX 0 0 0 0
BITMAP
ENDCHAR
STARTCHAR exclamdown
ENCODING 161
SWIDTH 205 0
DWIDTH 3 0
BBX 1 10 1 -2
BITMAP
80
80
00
80
80
80
80
80
80
80
ENDCHAR
STARTCHAR cent
ENCODING 162
SWIDTH 633 0
DWIDTH 9 0
BBX 6 12 1 -1
BITMAP
10
10
38
54
90
90
90
90
54
38
10
10
ENDCHAR
STARTCHAR sterling
ENCODING 163
SWIDTH 633 0
DWIDTH 9 0
BBX 7 10 1 0
BITMAP
1C
22
20
20
FC
20
20
20
40
FE
ENDCHAR
STARTCHAR currency
ENCODING 164
SWIDTH 633 0
DWIDTH 9 0
BBX 8 10 0 0
BITMAP
81
42
3C
42
42
42
42
3C
42
81
ENDCHAR
STARTCHAR yen
ENCODING 165
SWIDTH 633 0
DWIDTH 9 0
BBX 7 10 1 0
BITMAP
82
82
44
44
28
10
7C
10
7C
10
ENDCHAR
STARTCHAR brokenbar
ENCODING 166
SWIDTH 265 0
DWIDTH 4 0
BBX 1 12 2 -1
BITMAP
80
80
80
80
80
00
00
80
80
80
80
80
ENDCHAR
STARTCHAR section
ENCODING 167
SWIDTH 633 0
DWIDTH 9 0
BBX 6 11 2 -1
BITMAP
78
84
80
70
88
84
44
38
04
84
78
ENDCHAR
STARTCHAR dieresis
ENCODING 168
SWIDTH 614 0
DWIDTH 9 0
BBX 4 2 2 9
BITMAP
90
90
ENDCHAR
STARTCHAR copyright
ENCODING 169
SWIDTH 855 0
DWIDTH 12 0
BBX 10 10 1 0
BITMAP
1E00
6180
4080
8E40
9040
9040
8E40
4080
6180
1E00
ENDCHAR
STARTCHAR ordfeminine
ENCODING 170
SWIDTH 422 0
DWIDTH 6 0
BBX 5 6 1 4
BITMAP
60
10
70
90
90
68
ENDCHAR
STARTCHAR guillemotleft
ENCODING 171
SWIDTH 524 0
DWIDTH 7 0
BBX 6 5 0 2
BITMAP
24
48
90
48
24
ENDCHAR
STARTCHAR logicalnot
ENCODING 172
SWIDTH 633 0
DWIDTH 9 0
BBX 7 4 1 1
BITMAP
FE
02
02
02
ENDCHAR
STARTCHAR hyphen
ENCODING 173
SWIDTH 325 0
DWIDTH 5 0
BBX 3 1 1 4
BITMAP
E0
ENDCHAR
STARTCHAR registered
ENCODING 174
SWIDTH 633 0
DWIDTH 9 0
BBX 7 7 1 3
BITMAP
38
44
BA
B2
AA
44
38
ENDCHAR
STARTCHAR macron
ENCODING 175
SWIDTH 614 0
DWIDTH 9 0
BBX 4 1 3 9
BITMAP
F0
ENDCHAR
STARTCHAR degree
ENCODING 176
SWIDTH 277 0
DWIDTH 4 0
BBX 4 3 0 7
BITMAP
60
90
60
ENDCHAR
STARTCHAR plusminus
ENCODING 177
SWIDTH 633 0
DWIDTH 9 0
BBX 7 7 1 1
BITMAP
10
10
FE
10
10
00
FE
ENDCHAR
STARTCHAR twosuperior
ENCODING 178
SWIDTH 422 0
DWIDTH 6 0
BBX 4 6 1 4
BITMAP
E0
10
10
60
80
F0
ENDCHAR
STARTCHAR threesuperior
ENCODING 179
SWIDTH 422 0
DWIDTH 6 0
BBX 4 6 1 4
BITMAP
E0
10
60
10
10
E0
ENDCHAR
STARTCHAR acute
ENCODING 180
SWIDTH 614 0
DWIDTH 9 0
BBX 4 2 3 9
BITMAP
30
C0
ENDCHAR
STARTCHAR mu
ENCODING 181
SWIDTH 627 0
DWIDTH 8 0
BBX 6 10 1 -2
BITMAP
84
84
84
84
84
84
CC
F4
80
80
ENDCHAR
STARTCHAR paragraph
ENCODING 182
SWIDTH 633 0
DWIDTH 9 0
BBX 6 11 2 -1
BITMAP
7C
94
94
94
74
14
14
14
14
14
14
ENDCHAR
STARTCHAR periodcentered
ENCODING 183
SWIDTH 316 0
DWIDTH 9 0
BBX 1 2 4 3
BITMAP
80
80
ENDCHAR
STARTCHAR cedilla
ENCODING 184
SWIDTH 614 0
DWIDTH 9 0
BBX 3 2 2 -2
BITMAP
20
C0
ENDCHAR
STARTCHAR onesuperior
ENCODING 185
SWIDTH 422 0
DWIDTH 6 0
BBX 3 6 1 4
BITMAP
20
E0
20
20
20
20
ENDCHAR
STARTCHAR ordmasculine
ENCODING 186
SWIDTH 422 0
DWIDTH 6 0
BBX 4 6 1 4
BITMAP
60
90
90
90
90
60
ENDCHAR
STARTCHAR guillemotright
ENCODING 187
SWIDTH 524 0
DWIDTH 7 0
BBX 6 5 1 2
BITMAP
90
48
24
48
90
ENDCHAR
STARTCHAR onequarter
ENCODING 188
SWIDTH 801 0
DWIDTH 12 0
BBX 10 10 1 0
BITMAP
4200
C200
4400
4400
4980
4A80
1480
17C0
2080
2080
ENDCHAR
STARTCHAR onehalf
ENCODING 189
SWIDTH 801 0
DWIDTH 12 0
BBX 10 10 1 0
BITMAP
4200
C200
4400
4400
4980
4A40
1040
1180
2200
23C0
ENDCHAR
STARTCHAR threequarters
ENCODING 190
SWIDTH 873 0
DWIDTH 13 0
BBX 11 10 1 0
BITMAP
E100
1100
6200
1400
14C0
E940
0A40
13E0
2040
2040
ENDCHAR
STARTCHAR questiondown
ENCODING 191
SWIDTH 422 0
DWIDTH 6 0
BBX 6 10 0 -2
BITMAP
20
20
00
20
20
40
80
80
84
78
ENDCHAR
STARTCHAR Agrave
ENCODING 192
SWIDTH 690 0
DWIDTH 10 0
BBX 8 13 1 0
BITMAP
30
0C
00
18
18
24
24
42
42
7E
81
81
81
ENDCHAR
STARTCHAR Aacute
ENCODING 193
SWIDTH 690 0
DWIDTH 10 0
BBX 8 13 1 0
BITMAP
0C
30
00
18
18
24
24
42
42
7E
81
81
81
ENDCHAR
STARTCHAR Acircumflex
ENCODING 194
SWIDTH 690 0
DWIDTH 10 0
BBX 8 13 1 0
BITMAP
18
24
00
18
18
24
24
42
42
7E
81
81
81
ENDCHAR
STARTCHAR Atilde
ENCODING 195
SWIDTH 690 0
DWIDTH 10 0
BBX 8 13 1 0
BITMAP
34
58
00
18
18
24
24
42
42
7E
81
81
81
ENDCHAR
STARTCHAR Adieresis
ENCODING 196
SWIDTH 690 0
DWIDTH 10 0
BBX 8 13 1 0
BITMAP
24
24
00
18
18
24
24
42
42
7E
81
81
81
ENDCHAR
STARTCHAR Aring
ENCODING 197
SWIDTH 690 0
DWIDTH 10 0
BBX 8 13 1 0
BITMAP
18
24
18
18
18
24
24
42
42
7E
81
81
81
ENDCHAR
STARTCHAR AE
ENCODING 198
SWIDTH 907 0
DWIDTH 13 0
BBX 10 10 1 0
BITMAP
1FC0
1400
2400
2400
67C0
4400
7C00
8400
8400
87C0
ENDCHAR
STARTCHAR Ccedilla
ENCODING 199
SWIDTH 692 0
DWIDTH 10 0
BBX 8 12 1 -2
BITMAP
3E
43
C0
80
80
80
80
C0
41
3E
08
30
ENDCHAR
STARTCHAR Egrave
ENCODING 200
SWIDTH 542 0
DWIDTH 8 0
BBX 5 13 2 0
BITMAP
60
18
00
F8
80
80
80
F8
80
80
80
80
F8
ENDCHAR
STARTCHAR Eacute
ENCODING 201
SWIDTH 542 0
DWIDTH 8 0
BBX 5 13 2 0
BITMAP
18
60
00
F8
80
80
80
F8
80
80
80
80
F8
ENDCHAR
STARTCHAR Ecircumflex
ENCODING 202
SWIDTH 542 0
DWIDTH 8 0
BBX 5 13 2 0
BITMAP
30
48
00
F8
80
80
80
F8
80
80
80
80
F8
ENDCHAR
STARTCHAR Edieresis
ENCODING 203
SWIDTH 542 0
DWIDTH 8 0
BBX 5 13 2 0
BITMAP
48
48
00
F8
80
80
80
F8
80
80
80
80
F8
ENDCHAR
STARTCHAR Igrave
ENCODING 204
SWIDTH 288 0
DWIDTH 5 0
BBX 4 13 1 0
BITMAP
C0
30
00
40
40
40
40
40
40
40
40
40
40
ENDCHAR
STARTCHAR Iacute
ENCODING 205
SWIDTH 288 0
DWIDTH 5 0
BBX 4 13 1 0
BITMAP
30
C0
00
40
40
40
40
40
40
40
40
40
40
ENDCHAR
STARTCHAR Icircumflex
ENCODING 206
SWIDTH 288 0
DWIDTH 5 0
BBX 4 13 1 0
BITMAP
60
90
00
40
40
40
40
40
40
40
40
40
40
ENDCHAR
STARTCHAR Idieresis
ENCODING 207
SWIDTH 288 0
DWIDTH 5 0
BBX 3 13 1 0
BITMAP
A0
A0
00
40
40
40
40
40
40
40
40
40
40
ENDCHAR
STARTCHAR Eth
ENCODING 208
SWIDTH 749 0
DWIDTH 11 0
BBX 10 10 0 0
BITMAP
3F00
2080
20C0
2040
F840
2040
2040
20C0
2080
3F00
ENDCHAR
STARTCHAR Ntilde
ENCODING 209
SWIDTH 741 0
DWIDTH 11 0
BBX 7 13 2 0
BITMAP
34
58
00
C2
C2
A2
A2
92
92
8A
8A
86
86
ENDCHAR
STARTCHAR Ograve
ENCODING 210
SWIDTH 777 0
DWIDTH 11 0
BBX 9 13 1 0
BITMAP
3000
0C00
0000
3E00
4100
C180
8080
8080
8080
8080
C180
4100
3E00
ENDCHAR
STARTCHAR Oacute
ENCODING 211
SWIDTH 777 0
DWIDTH 11 0
BBX 9 13 1 0
BITMAP
0600
1800
0000
3E00
4100
C180
8080
8080
8080
8080
C180
4100
3E00
ENDCHAR
STARTCHAR Ocircumflex
ENCODING 212
SWIDTH 777 0
DWIDTH 11 0
BBX 9 13 1 0
BITMAP
1C00
2200
0000
3E00
4100
C180
8080
8080
8080
8080
C180
4100
3E00
ENDCHAR
STARTCHAR Otilde
ENCODING 213
SWIDTH 777 0
DWIDTH 11 0
BBX 9 13 1 0
BITMAP
1A00
2C00
0000
3E00
4100
C180
8080
8080
8080
8080
C180
4100
3E00
ENDCHAR
STARTCHAR Odieresis
ENCODING 214
SWIDTH 777 0
DWIDTH 11 0
BBX 9 13 1 0
BITMAP
2200
2200
0000
3E00
4100
C180
8080
8080
8080
8080
C180
4100
3E00
ENDCHAR
STARTCHAR multiply
ENCODING 215
SWIDTH 633 0
DWIDTH 9 0
BBX 5 5 2 2
BITMAP
88
70
20
70
88
ENDCHAR
STARTCHAR Oslash
ENCODING 216
SWIDTH 777 0
DWIDTH 11 0
BBX 11 12 0 -1
BITMAP
0020
1F40
2080
6140
4240
4440
4440
4840
50C0
2080
5F00
8000
ENDCHAR
STARTCHAR Ugrave
ENCODING 217
SWIDTH 693 0
DWIDTH 9 0
BBX 7 13 1 0
BITMAP
30
0C
00
82
82
82
82
82
82
82
82
44
38
ENDCHAR
STARTCHAR Uacute
ENCODING 218
SWIDTH 693 0
DWIDTH 10 0
BBX 7 13 1 0
BITMAP
0C
30
00
82
82
82
82
82
82
82
82
44
38
ENDCHAR
STARTCHAR Ucircumflex
ENCODING 219
SWIDTH 693 0
DWIDTH 10 0
BBX 7 13 1 0
BITMAP
18
24
00
82
82
82
82
82
82
82
82
44
38
ENDCHAR
STARTCHAR Udieresis
ENCODING 220
SWIDTH 693 0
DWIDTH 9 0
BBX 7 13 1 0
BITMAP
24
24
00
82
82
82
82
82
82
82
82
44
38
ENDCHAR
STARTCHAR Yacute
ENCODING 221
SWIDTH 623 0
DWIDTH 9 0
BBX 7 13 1 0
BITMAP
0C
30
00
82
82
44
44
28
10
10
10
10
10
ENDCHAR
STARTCHAR Thorn
ENCODING 222
SWIDTH 553 0
DWIDTH 8 0
BBX 6 10 2 0
BITMAP
80
80
F8
84
84
84
88
F0
80
80
ENDCHAR
STARTCHAR germandbls
ENCODING 223
SWIDTH 598 0
DWIDTH 9 0
BBX 7 11 1 0
BITMAP
78
84
84
88
90
8C
82
82
82
82
9C
ENDCHAR
STARTCHAR agrave
ENCODING 224
SWIDTH 552 0
DWIDTH 8 0
BBX 7 11 1 0
BITMAP
60
18
00
78
04
04
7C
84
84
8C
72
ENDCHAR
STARTCHAR aacute
ENCODING 225
SWIDTH 552 0
DWIDTH 8 0
BBX 7 11 1 0
BITMAP
0C
30
00
78
04
04
7C
84
84
8C
72
ENDCHAR
STARTCHAR acircumflex
ENCODING 226
SWIDTH 552 0
DWIDTH 8 0
BBX 7 11 1 0
BITMAP
30
48
00
78
04
04
7C
84
84
8C
72
ENDCHAR
STARTCHAR atilde
ENCODING 227
SWIDTH 552 0
DWIDTH 8 0
BBX 7 11 1 0
BITMAP
34
58
00
78
04
04
7C
84
84
8C
72
ENDCHAR
STARTCHAR adieresis
ENCODING 228
SWIDTH 552 0
DWIDTH 8 0
BBX 7 11 1 0
BITMAP
48
48
00
78
04
04
7C
84
84
8C
72
ENDCHAR
STARTCHAR aring
ENCODING 229
SWIDTH 552 0
DWIDTH 8 0
BBX 7 12 1 0
BITMAP
30
48
30
00
78
04
04
7C
84
84
8C
76
ENDCHAR
STARTCHAR ae
ENCODING 230
SWIDTH 853 0
DWIDTH 12 0
BBX 10 8 1 0
BITMAP
7380
0C40
0840
7FC0
8800
8800
8C40
7380
ENDCHAR
STARTCHAR ccedilla
ENCODING 231
SWIDTH 518 0
DWIDTH 8 0
BBX 6 10 1 -2
BITMAP
38
44
80
80
80
80
44
38
10
60
ENDCHAR
STARTCHAR egrave
ENCODING 232
SWIDTH 557 0
DWIDTH 8 0
BBX 6 11 1 0
BITMAP
60
18
00
38
44
84
FC
80
80
44
38
ENDCHAR
STARTCHAR eacute
ENCODING 233
SWIDTH 557 0
DWIDTH 8 0
BBX 6 11 1 0
BITMAP
0C
30
00
38
44
84
FC
80
80
44
38
ENDCHAR
STARTCHAR ecircumflex
ENCODING 234
SWIDTH 557 0
DWIDTH 8 0
BBX 6 11 1 0
BITMAP
30
48
00
38
44
84
FC
80
80
44
38
ENDCHAR
STARTCHAR edieresis
ENCODING 235
SWIDTH 557 0
DWIDTH 8 0
BBX 6 11 1 0
BITMAP
48
48
00
38
44
84
FC
80
80
44
38
ENDCHAR
STARTCHAR igrave
ENCODING 236
SWIDTH 289 0
DWIDTH 4 0
BBX 4 11 0 0
BITMAP
C0
30
00
20
20
20
20
20
20
20
20
ENDCHAR
STARTCHAR iacute
ENCODING 237
SWIDTH 289 0
DWIDTH 4 0
BBX 4 11 0 0
BITMAP
30
C0
00
20
20
20
20
20
20
20
20
ENDCHAR
STARTCHAR icircumflex
ENCODING 238
SWIDTH 289 0
DWIDTH 4 0
BBX 4 11 0 0
BITMAP
60
90
00
20
20
20
20
20
20
20
20
ENDCHAR
STARTCHAR idieresis
ENCODING 239
SWIDTH 289 0
DWIDTH 4 0
BBX 4 11 0 0
BITMAP
90
90
00
20
20
20
20
20
20
20
20
ENDCHAR
STARTCHAR eth
ENCODING 240
SWIDTH 602 0
DWIDTH 9 0
BBX 7 11 1 0
BITMAP
10
3C
08
3C
44
82
82
82
82
44
38
ENDCHAR
STARTCHAR ntilde
ENCODING 241
SWIDTH 620 0
DWIDTH 9 0
BBX 6 11 1 0
BITMAP
34
58
00
B8
CC
84
84
84
84
84
84
ENDCHAR
STARTCHAR ograve
ENCODING 242
SWIDTH 614 0
DWIDTH 9 0
BBX 7 11 1 0
BITMAP
60
18
00
38
44
82
82
82
82
44
38
ENDCHAR
STARTCHAR oacute
ENCODING 243
SWIDTH 614 0
DWIDTH 9 0
BBX 7 11 1 0
BITMAP
0C
30
00
38
44
82
82
82
82
44
38
ENDCHAR
STARTCHAR ocircumflex
ENCODING 244
SWIDTH 614 0
DWIDTH 9 0
BBX 7 11 1 0
BITMAP
18
24
00
38
44
82
82
82
82
44
38
ENDCHAR
STARTCHAR otilde
ENCODING 245
SWIDTH 614 0
DWIDTH 9 0
BBX 7 11 1 0
BITMAP
34
58
00
38
44
82
82
82
82
44
38
ENDCHAR
STARTCHAR odieresis
ENCODING 246
SWIDTH 614 0
DWIDTH 9 0
BBX 7 11 1 0
BITMAP
44
44
00
38
44
82
82
82
82
44
38
ENDCHAR
STARTCHAR divide
ENCODING 247
SWIDTH 633 0
DWIDTH 9 0
BBX 7 7 1 1
BITMAP
10
10
00
FE
00
10
10
ENDCHAR
STARTCHAR oslash
ENCODING 248
SWIDTH 614 0
DWIDTH 9 0
BBX 9 10 0 -1
BITMAP
0080
1D00
2200
4500
4900
4900
5100
2200
5C00
8000
ENDCHAR
STARTCHAR ugrave
ENCODING 249
SWIDTH 620 0
DWIDTH 9 0
BBX 6 11 1 0
BITMAP
60
18
00
84
84
84
84
84
84
CC
74
ENDCHAR
STARTCHAR uacute
ENCODING 250
SWIDTH 620 0
DWIDTH 9 0
BBX 6 11 1 0
BITMAP
0C
30
00
84
84
84
84
84
84
CC
74
ENDCHAR
STARTCHAR ucircumflex
ENCODING 251
SWIDTH 620 0
DWIDTH 9 0
BBX 6 11 1 0
BITMAP
30
48
00
84
84
84
84
84
84
CC
74
ENDCHAR
STARTCHAR udieresis
ENCODING 252
SWIDTH 620 0
DWIDTH 9 0
BBX 6 11 1 0
BITMAP
48
48
00
84
84
84
84
84
84
CC
74
ENDCHAR
STARTCHAR yacute
ENCODING 253
SWIDTH 568 0
DWIDTH 8 0
BBX 6 13 1 -2
BITMAP
0C
30
00
84
84
84
84
48
48
30
30
40
C0
ENDCHAR
STARTCHAR thorn
ENCODING 254
SWIDTH 630 0
DWIDTH 8 0
BBX 6 12 1 -2
BITMAP
80
80
B0
C8
84
84
84
84
88
F0
80
80
ENDCHAR
STARTCHAR ydieresis
ENCODING 255
SWIDTH 568 0
DWIDTH 8 0
BBX 6 13 1 -2
BITMAP
48
48
00
84
84
84
84
48
48
30
30
40
C0
ENDCHAR
STARTCHAR uni0400
ENCODING 1024
SWIDTH 542 0
DWIDTH 8 0
BBX 5 13 2 0
BITMAP
60
18
00
F8
80
80
80
F8
80
80
80
80
F8
ENDCHAR
STARTCHAR afii10023
ENCODING 1025
SWIDTH 542 0
DWIDTH 8 0
BBX 5 13 2 0
BITMAP
48
48
00
F8
80
80
80
F8
80
80
80
80
F8
ENDCHAR
STARTCHAR afii10051
ENCODING 1026
SWIDTH 857 0
DWIDTH 12 0
BBX 10 10 1 0
BITMAP
FE00
1000
1000
1700
1880
1040
1040
1040
1080
1300
ENDCHAR
STARTCHAR afii10052
ENCODING 1027
SWIDTH 571 0
DWIDTH 8 0
BBX 5 13 2 0
BITMAP
18
60
00
F8
80
80
80
80
80
80
80
80
80
ENDCHAR
STARTCHAR afii10053
ENCODING 1028
SWIDTH 714 0
DWIDTH 10 0
BBX 8 10 1 0
BITMAP
3E
43
C0
80
F8
80
80
C0
41
3E
ENDCHAR
STARTCHAR afii10054
ENCODING 1029
SWIDTH 539 0
DWIDTH 8 0
BBX 6 10 1 0
BITMAP
78
84
80
80
60
18
04
04
84
78
ENDCHAR
STARTCHAR afii10055
ENCODING 1030
SWIDTH 288 0
DWIDTH 5 0
BBX 1 10 2 0
BITMAP
80
80
80
80
80
80
80
80
80
80
ENDCHAR
STARTCHAR afii10056
ENCODING 1031
SWIDTH 288 0
DWIDTH 5 0
BBX 3 13 1 0
BITMAP
A0
A0
00
40
40
40
40
40
40
40
40
40
40
ENDCHAR
STARTCHAR afii10057
ENCODING 1032
SWIDTH 311 0
DWIDTH 5 0
BBX 3 12 0 -2
BITMAP
20
20
20
20
20
20
20
20
20
20
20
C0
ENDCHAR
STARTCHAR afii10058
ENCODING 1033
SWIDTH 1000 0
DWIDTH 14 0
BBX 12 10 1 0
BITMAP
3E00
2200
2200
2200
23C0
2220
2210
4210
4210
83E0
ENDCHAR
STARTCHAR afii10059
ENCODING 1034
SWIDTH 1000 0
DWIDTH 14 0
BBX 11 10 2 0
BITMAP
8400
8400
8400
8400
FF80
8440
8420
8420
8420
87C0
ENDCHAR
STARTCHAR afii10060
ENCODING 1035
SWIDTH 857 0
DWIDTH 12 0
BBX 10 10 1 0
BITMAP
FE00
1000
1000
1700
1880
1040
1040
1040
1040
1040
ENDCHAR
STARTCHAR afii10061
ENCODING 1036
SWIDTH 642 0
DWIDTH 9 0
BBX 7 13 2 0
BITMAP
0C
30
00
82
84
88
90
E0
90
88
88
84
86
ENDCHAR
STARTCHAR afii10062
ENCODING 1038
SWIDTH 642 0
DWIDTH 9 0
BBX 7 12 1 0
BITMAP
38
00
82
82
82
44
44
28
28
10
20
40
ENDCHAR
STARTCHAR afii10145
ENCODING 1039
SWIDTH 785 0
DWIDTH 11 0
BBX 7 12 2 -2
BITMAP
82
82
82
82
82
82
82
82
82
FE
10
10
ENDCHAR
STARTCHAR afii10017
ENCODING 1040
SWIDTH 714 0
DWIDTH 10 0
BBX 8 10 1 0
BITMAP
18
18
24
24
42
42
7E
81
81
81
ENDCHAR
STARTCHAR afii10018
ENCODING 1041
SWIDTH 642 0
DWIDTH 9 0
BBX 6 10 2 0
BITMAP
FC
80
80
80
F0
88
84
84
84
F8
ENDCHAR
STARTCHAR afii10019
ENCODING 1042
SWIDTH 571 0
DWIDTH 8 0
BBX 5 10 2 0
BITMAP
F0
88
88
90
E0
90
88
88
98
F0
ENDCHAR
STARTCHAR afii10020
ENCODING 1043
SWIDTH 571 0
DWIDTH 8 0
BBX 5 10 2 0
BITMAP
F8
80
80
80
80
80
80
80
80
80
ENDCHAR
STARTCHAR afii10021
ENCODING 1044
SWIDTH 785 0
DWIDTH 11 0
BBX 9 12 1 -2
BITMAP
3F00
2100
2100
2100
2100
2100
2100
4100
4100
FF80
8080
8080
ENDCHAR
STARTCHAR afii10022
ENCODING 1045
SWIDTH 571 0
DWIDTH 8 0
BBX 5 10 2 0
BITMAP
F8
80
80
80
F8
80
80
80
80
F8
ENDCHAR
STARTCHAR afii10024
ENCODING 1046
SWIDTH 857 0
DWIDTH 12 0
BBX 11 10 1 0
BITMAP
8420
4440
2480
1500
0E00
1500
2480
2480
4440
C460
ENDCHAR
STARTCHAR afii10025
ENCODING 1047
SWIDTH 642 0
DWIDTH 9 0
BBX 7 10 1 0
BITMAP
78
84
02
04
38
04
02
02
84
78
ENDCHAR
STARTCHAR afii10026
ENCODING 1048
SWIDTH 785 0
DWIDTH 11 0
BBX 7 10 2 0
BITMAP
86
86
8A
8A
92
92
A2
A2
C2
C2
ENDCHAR
STARTCHAR afii10027
ENCODING 1049
SWIDTH 785 0
DWIDTH 11 0
BBX 7 12 2 0
BITMAP
38
00
86
86
8A
8A
92
92
A2
A2
C2
C2
ENDCHAR
STARTCHAR afii10028
ENCODING 1050
SWIDTH 642 0
DWIDTH 9 0
BBX 7 10 2 0
BITMAP
82
84
88
90
E0
90
88
88
84
86
ENDCHAR
STARTCHAR afii10029
ENCODING 1051
SWIDTH 785 0
DWIDTH 11 0
BBX 8 10 1 0
BITMAP
3F
21
21
21
21
21
21
41
41
81
ENDCHAR
STARTCHAR afii10030
ENCODING 1052
SWIDTH 857 0
DWIDTH 12 0
BBX 10 10 1 0
BITMAP
C0C0
C0C0
A140
A140
A140
9240
9240
8C40
8C40
8040
ENDCHAR
STARTCHAR afii10031
ENCODING 1053
SWIDTH 785 0
DWIDTH 11 0
BBX 7 10 2 0
BITMAP
82
82
82
82
FE
82
82
82
82
82
ENDCHAR
STARTCHAR afii10032
ENCODING 1054
SWIDTH 785 0
DWIDTH 11 0
BBX 9 10 1 0
BITMAP
3E00
4100
C180
8080
8080
8080
8080
C180
4100
3E00
ENDCHAR
STARTCHAR afii10033
ENCODING 1055
SWIDTH 785 0
DWIDTH 11 0
BBX 7 10 2 0
BITMAP
FE
82
82
82
82
82
82
82
82
82
ENDCHAR
STARTCHAR afii10034
ENCODING 1056
SWIDTH 642 0
DWIDTH 9 0
BBX 6 10 2 0
BITMAP
F8
84
84
84
88
F0
80
80
80
80
ENDCHAR
STARTCHAR afii10035
ENCODING 1057
SWIDTH 714 0
DWIDTH 10 0
BBX 8 10 1 0
BITMAP
3E
43
C0
80
80
80
80
C0
41
3E
ENDCHAR
STARTCHAR afii10036
ENCODING 1058
SWIDTH 642 0
DWIDTH 9 0
BBX 7 10 1 0
BITMAP
FE
10
10
10
10
10
10
10
10
10
ENDCHAR
STARTCHAR afii10037
ENCODING 1059
SWIDTH 642 0
DWIDTH 9 0
BBX 7 10 1 0
BITMAP
82
82
82
44
44
28
28
10
20
40
ENDCHAR
STARTCHAR afii10038
ENCODING 1060
SWIDTH 785 0
DWIDTH 11 0
BBX 9 10 1 0
BITMAP
0800
3E00
4900
8880
8880
8880
8880
4900
3E00
0800
ENDCHAR
STARTCHAR afii10039
ENCODING 1061
SWIDTH 642 0
DWIDTH 9 0
BBX 7 10 1 0
BITMAP
82
82
44
28
10
10
28
44
82
82
ENDCHAR
STARTCHAR afii10040
ENCODING 1062
SWIDTH 785 0
DWIDTH 11 0
BBX 8 12 2 -2
BITMAP
82
82
82
82
82
82
82
82
82
FF
01
01
ENDCHAR
STARTCHAR afii10041
ENCODING 1063
SWIDTH 642 0
DWIDTH 9 0
BBX 7 10 1 0
BITMAP
82
82
82
82
82
46
3A
02
02
02
ENDCHAR
STARTCHAR afii10042
ENCODING 1064
SWIDTH 928 0
DWIDTH 13 0
BBX 11 10 1 0
BITMAP
8420
8420
8420
8420
8420
8420
8420
8420
8420
FFE0
ENDCHAR
STARTCHAR afii10043
ENCODING 1065
SWIDTH 928 0
DWIDTH 13 0
BBX 12 12 1 -2
BITMAP
8420
8420
8420
8420
8420
8420
8420
8420
8420
FFF0
0010
0010
ENDCHAR
STARTCHAR afii10044
ENCODING 1066
SWIDTH 714 0
DWIDTH 10 0
BBX 8 10 1 0
BITMAP
E0
20
20
20
3C
22
21
21
21
3E
ENDCHAR
STARTCHAR afii10045
ENCODING 1067
SWIDTH 928 0
DWIDTH 13 0
BBX 9 10 2 0
BITMAP
8080
8080
8080
8080
F080
8880
8480
8480
8480
F880
ENDCHAR
STARTCHAR afii10046
ENCODING 1068
SWIDTH 642 0
DWIDTH 9 0
BBX 6 10 2 0
BITMAP
80
80
80
80
F0
88
84
84
84
F8
ENDCHAR
STARTCHAR afii10047
ENCODING 1069
SWIDTH 714 0
DWIDTH 10 0
BBX 8 10 1 0
BITMAP
7C
C2
03
01
1F
01
01
03
82
7C
ENDCHAR
STARTCHAR afii10048
ENCODING 1070
SWIDTH 928 0
DWIDTH 13 0
BBX 11 10 1 0
BITMAP
8780
8840
9860
9020
F020
9020
9020
9860
8840
8780
ENDCHAR
STARTCHAR afii10049
ENCODING 1071
SWIDTH 642 0
DWIDTH 9 0
BBX 7 10 1 0
BITMAP
3E
42
42
42
22
1E
22
22
42
C2
ENDCHAR
STARTCHAR afii10065
ENCODING 1072
SWIDTH 642 0
DWIDTH 9 0
BBX 7 8 1 0
BITMAP
78
04
04
7C
84
84
8C
72
ENDCHAR
STARTCHAR afii10066
ENCODING 1073
SWIDTH 642 0
DWIDTH 9 0
BBX 7 11 1 0
BITMAP
1E
20
40
B8
C4
82
82
82
82
44
38
ENDCHAR
STARTCHAR afii10067
ENCODING 1074
SWIDTH 571 0
DWIDTH 8 0
BBX 6 8 1 0
BITMAP
F8
84
84
F8
88
84
84
F8
ENDCHAR
STARTCHAR afii10068
ENCODING 1075
SWIDTH 500 0
DWIDTH 7 0
BBX 5 8 2 0
BITMAP
F8
80
80
80
80
80
80
80
ENDCHAR
STARTCHAR afii10069
ENCODING 1076
SWIDTH 571 0
DWIDTH 8 0
BBX 8 9 0 -1
BITMAP
3E
22
22
22
22
42
42
FF
81
ENDCHAR
STARTCHAR afii10070
ENCODING 1077
SWIDTH 571 0
DWIDTH 8 0
BBX 6 8 1 0
BITMAP
38
44
84
FC
80
80
44
38
ENDCHAR
STARTCHAR afii10072
ENCODING 1078
SWIDTH 928 0
DWIDTH 13 0
BBX 11 8 1 0
BITMAP
4440
2480
1500
1F00
2480
2480
4440
C460
ENDCHAR
STARTCHAR afii10073
ENCODING 1079
SWIDTH 571 0
DWIDTH 8 0
BBX 6 8 1 0
BITMAP
78
84
04
38
08
04
84
78
ENDCHAR
STARTCHAR afii10074
ENCODING 1080
SWIDTH 571 0
DWIDTH 8 0
BBX 6 8 1 0
BITMAP
8C
8C
94
94
A4
A4
C4
C4
ENDCHAR
STARTCHAR afii10075
ENCODING 1081
SWIDTH 571 0
DWIDTH 8 0
BBX 6 10 1 0
BITMAP
30
00
8C
8C
94
94
A4
A4
C4
C4
ENDCHAR
STARTCHAR afii10076
ENCODING 1082
SWIDTH 642 0
DWIDTH 9 0
BBX 6 8 2 0
BITMAP
88
90
A0
E0
90
90
88
8C
ENDCHAR
STARTCHAR afii10077
ENCODING 1083
SWIDTH 571 0
DWIDTH 8 0
BBX 7 8 0 0
BITMAP
3E
22
22
22
22
42
42
82
ENDCHAR
STARTCHAR afii10078
ENCODING 1084
SWIDTH 857 0
DWIDTH 12 0
BBX 9 8 1 0
BITMAP
C180
C180
A280
A280
9480
9480
8880
8080
ENDCHAR
STARTCHAR afii10079
ENCODING 1085
SWIDTH 571 0
DWIDTH 8 0
BBX 6 8 1 0
BITMAP
84
84
84
FC
84
84
84
84
ENDCHAR
STARTCHAR afii10080
ENCODING 1086
SWIDTH 642 0
DWIDTH 9 0
BBX 7 8 1 0
BITMAP
38
44
82
82
82
82
44
38
ENDCHAR
STARTCHAR afii10081
ENCODING 1087
SWIDTH 571 0
DWIDTH 8 0
BBX 6 8 1 0
BITMAP
FC
84
84
84
84
84
84
84
ENDCHAR
STARTCHAR afii10082
ENCODING 1088
SWIDTH 571 0
DWIDTH 8 0
BBX 6 10 1 -2
BITMAP
B0
C8
84
84
84
84
88
F0
80
80
ENDCHAR
STARTCHAR afii10083
ENCODING 1089
SWIDTH 571 0
DWIDTH 8 0
BBX 6 8 1 0
BITMAP
38
44
80
80
80
80
44
38
ENDCHAR
STARTCHAR afii10084
ENCODING 1090
SWIDTH 642 0
DWIDTH 9 0
BBX 7 8 1 0
BITMAP
FE
10
10
10
10
10
10
10
ENDCHAR
STARTCHAR afii10085
ENCODING 1091
SWIDTH 571 0
DWIDTH 8 0
BBX 6 10 1 -2
BITMAP
84
84
84
84
48
48
30
30
40
C0
ENDCHAR
STARTCHAR afii10086
ENCODING 1092
SWIDTH 928 0
DWIDTH 13 0
BBX 11 13 1 -2
BITMAP
0400
0400
0400
3580
4E40
8420
8420
8420
8420
4E40
3580
0400
0400
ENDCHAR
STARTCHAR afii10087
ENCODING 1093
SWIDTH 571 0
DWIDTH 8 0
BBX 6 8 1 0
BITMAP
84
84
48
30
30
48
84
84
ENDCHAR
STARTCHAR afii10088
ENCODING 1094
SWIDTH 571 0
DWIDTH 8 0
BBX 7 9 1 -1
BITMAP
84
84
84
84
84
84
84
FE
02
ENDCHAR
STARTCHAR afii10089
ENCODING 1095
SWIDTH 571 0
DWIDTH 8 0
BBX 6 8 1 0
BITMAP
84
84
84
84
CC
74
04
04
ENDCHAR
STARTCHAR afii10090
ENCODING 1096
SWIDTH 928 0
DWIDTH 13 0
BBX 11 8 1 0
BITMAP
8420
8420
8420
8420
8420
8420
8420
FFE0
ENDCHAR
STARTCHAR afii10091
ENCODING 1097
SWIDTH 928 0
DWIDTH 13 0
BBX 12 9 1 -1
BITMAP
8420
8420
8420
8420
8420
8420
8420
FFF0
0010
ENDCHAR
STARTCHAR afii10092
ENCODING 1098
SWIDTH 642 0
DWIDTH 9 0
BBX 8 8 0 0
BITMAP
E0
20
20
3C
22
21
21
3E
ENDCHAR
STARTCHAR afii10093
ENCODING 1099
SWIDTH 785 0
DWIDTH 11 0
BBX 9 8 1 0
BITMAP
8080
8080
8080
F080
8880
8480
8480
F880
ENDCHAR
STARTCHAR afii10094
ENCODING 1100
SWIDTH 571 0
DWIDTH 8 0
BBX 6 8 1 0
BITMAP
80
80
80
F0
88
84
84
F8
ENDCHAR
STARTCHAR afii10095
ENCODING 1101
SWIDTH 571 0
DWIDTH 8 0
BBX 6 8 1 0
BITMAP
70
88
04
3C
04
04
88
70
ENDCHAR
STARTCHAR afii10096
ENCODING 1102
SWIDTH 857 0
DWIDTH 12 0
BBX 10 8 1 0
BITMAP
8700
8880
9040
F040
9040
9040
8880
8700
ENDCHAR
STARTCHAR afii10097
ENCODING 1103
SWIDTH 571 0
DWIDTH 8 0
BBX 6 8 1 0
BITMAP
7C
84
84
44
3C
44
84
84
ENDCHAR
STARTCHAR uni0450
ENCODING 1104
SWIDTH 557 0
DWIDTH 8 0
BBX 6 11 1 0
BITMAP
60
18
00
38
44
84
FC
80
80
44
38
ENDCHAR
STARTCHAR afii10071
ENCODING 1105
SWIDTH 557 0
DWIDTH 8 0
BBX 6 11 1 0
BITMAP
48
48
00
38
44
84
FC
80
80
44
38
ENDCHAR
STARTCHAR afii10099
ENCODING 1106
SWIDTH 571 0
DWIDTH 8 0
BBX 7 13 0 -2
BITMAP
40
F8
40
5C
66
42
42
42
42
42
42
02
0C
ENDCHAR
STARTCHAR afii10100
ENCODING 1107
SWIDTH 500 0
DWIDTH 7 0
BBX 5 11 2 0
BITMAP
18
60
00
F8
80
80
80
80
80
80
80
ENDCHAR
STARTCHAR afii10101
ENCODING 1108
SWIDTH 571 0
DWIDTH 8 0
BBX 6 8 1 0
BITMAP
38
44
80
F0
80
80
44
38
ENDCHAR
STARTCHAR afii10102
ENCODING 1109
SWIDTH 510 0
DWIDTH 6 0
BBX 4 8 1 0
BITMAP
70
80
80
40
20
10
10
E0
ENDCHAR
STARTCHAR afii10103
ENCODING 1110
SWIDTH 289 0
DWIDTH 5 0
BBX 1 11 2 0
BITMAP
80
80
00
80
80
80
80
80
80
80
80
ENDCHAR
STARTCHAR afii10104
ENCODING 1111
SWIDTH 289 0
DWIDTH 4 0
BBX 4 11 0 0
BITMAP
90
90
00
20
20
20
20
20
20
20
20
ENDCHAR
STARTCHAR afii10105
ENCODING 1112
SWIDTH 304 0
DWIDTH 5 0
BBX 3 13 0 -2
BITMAP
20
20
00
20
20
20
20
20
20
20
20
20
C0
ENDCHAR
STARTCHAR afii10106
ENCODING 1113
SWIDTH 928 0
DWIDTH 13 0
BBX 12 8 0 0
BITMAP
3E00
2200
2200
23C0
2220
4210
4210
83E0
ENDCHAR
STARTCHAR afii10107
ENCODING 1114
SWIDTH 928 0
DWIDTH 13 0
BBX 11 8 1 0
BITMAP
8400
8400
8400
FF80
8440
8420
8420
87C0
ENDCHAR
STARTCHAR afii10108
ENCODING 1115
SWIDTH 571 0
DWIDTH 8 0
BBX 7 11 0 0
BITMAP
40
F8
40
5C
66
42
42
42
42
42
42
ENDCHAR
STARTCHAR afii10109
ENCODING 1116
SWIDTH 642 0
DWIDTH 9 0
BBX 6 11 2 0
BITMAP
18
60
00
88
90
A0
E0
90
90
88
8C
ENDCHAR
STARTCHAR afii10110
ENCODING 1118
SWIDTH 571 0
DWIDTH 8 0
BBX 6 12 1 -2
BITMAP
30
00
84
84
84
84
48
48
30
30
40
C0
ENDCHAR
STARTCHAR afii10193
ENCODING 1119
SWIDTH 571 0
DWIDTH 8 0
BBX 6 9 1 -1
BITMAP
84
84
84
84
84
84
84
FC
10
ENDCHAR
STARTCHAR afii10146
ENCODING 1122
SWIDTH 714 0
DWIDTH 10 0
BBX 8 10 1 0
BITMAP
20
F8
20
20
3C
22
21
21
21
3E
ENDCHAR
STARTCHAR afii10194
ENCODING 1123
SWIDTH 642 0
DWIDTH 9 0
BBX 8 11 0 0
BITMAP
20
20
20
F8
20
20
3C
22
21
21
3E
ENDCHAR
STARTCHAR afii10147
ENCODING 1138
SWIDTH 785 0
DWIDTH 11 0
BBX 9 10 1 0
BITMAP
3E00
4100
C180
8080
FF80
8080
8080
C180
4100
3E00
ENDCHAR
STARTCHAR afii10195
ENCODING 1139
SWIDTH 642 0
DWIDTH 9 0
BBX 7 8 1 0
BITMAP
38
44
82
FE
82
82
44
38
ENDCHAR
STARTCHAR afii10148
ENCODING 1140
SWIDTH 714 0
DWIDTH 10 0
BBX 9 10 1 0
BITMAP
8080
8100
8200
4200
4200
4400
2400
2400
1800
1800
ENDCHAR
STARTCHAR afii10196
ENCODING 1141
SWIDTH 571 0
DWIDTH 8 0
BBX 7 8 1 0
BITMAP
82
84
84
88
48
48
30
30
ENDCHAR
STARTCHAR afii10050
ENCODING 1168
SWIDTH 571 0
DWIDTH 8 0
BBX 5 12 2 0
BITMAP
08
08
F8
80
80
80
80
80
80
80
80
80
ENDCHAR
STARTCHAR afii10098
ENCODING 1169
SWIDTH 500 0
DWIDTH 7 0
BBX 5 9 2 0
BITMAP
08
F8
80
80
80
80
80
80
80
ENDCHAR
STARTCHAR uni04AA
ENCODING 1194
SWIDTH 692 0
DWIDTH 10 0
BBX 8 12 1 -2
BITMAP
3E
43
C0
80
80
80
80
C0
41
3E
08
30
ENDCHAR
STARTCHAR uni04AB
ENCODING 1195
SWIDTH 518 0
DWIDTH 8 0
BBX 6 10 1 -2
BITMAP
38
44
80
80
80
80
44
38
10
60
ENDCHAR
STARTCHAR uni04AE
ENCODING 1198
SWIDTH 623 0
DWIDTH 9 0
BBX 7 10 1 0
BITMAP
82
82
44
44
28
10
10
10
10
10
ENDCHAR
STARTCHAR uni04C0
ENCODING 1216
SWIDTH 288 0
DWIDTH 5 0
BBX 1 10 2 0
BITMAP
80
80
80
80
80
80
80
80
80
80
ENDCHAR
STARTCHAR uni04D2
ENCODING 1234
SWIDTH 690 0
DWIDTH 10 0
BBX 8 13 1 0
BITMAP
24
24
00
18
18
24
24
42
42
7E
81
81
81
ENDCHAR
STARTCHAR uni04D3
ENCODING 1235
SWIDTH 552 0
DWIDTH 8 0
BBX 7 11 1 0
BITMAP
48
48
00
78
04
04
7C
84
84
8C
72
ENDCHAR
STARTCHAR uni04D4
ENCODING 1236
SWIDTH 907 0
DWIDTH 13 0
BBX 10 10 1 0
BITMAP
1FC0
1400
2400
2400
67C0
4400
7C00
8400
8400
87C0
ENDCHAR
STARTCHAR uni04D5
ENCODING 1237
SWIDTH 853 0
DWIDTH 12 0
BBX 10 8 1 0
BITMAP
7380
0C40
0840
7FC0
8800
8800
8C40
7380
ENDCHAR
STARTCHAR uni04E6
ENCODING 1254
SWIDTH 777 0
DWIDTH 11 0
BBX 9 13 1 0
BITMAP
2200
2200
0000
3E00
4100
C180
8080
8080
8080
8080
C180
4100
3E00
ENDCHAR
STARTCHAR uni04E7
ENCODING 1255
SWIDTH 614 0
DWIDTH 9 0
BBX 7 11 1 0
BITMAP
44
44
00
38
44
82
82
82
82
44
38
ENDCHAR
STARTCHAR uni04E8
ENCODING 1256
SWIDTH 785 0
DWIDTH 11 0
BBX 9 10 1 0
BITMAP
3E00
4100
C180
8080
FF80
8080
8080
C180
4100
3E00
ENDCHAR
STARTCHAR uni04E9
ENCODING 1257
SWIDTH 642 0
DWIDTH 9 0
BBX 7 8 1 0
BITMAP
38
44
82
FE
82
82
44
38
ENDCHAR
ENDFONT
